<mxfile host="65bd71144e" modified="2020-11-06T12:37:04.037Z" agent="5.0 (Windows NT 10.0; Win64; x64) AppleWebKit/537.36 (KHTML, like Gecko) Code/1.50.1 Chrome/83.0.4103.122 Electron/9.2.1 Safari/537.36" etag="yrQVnfW2m1p67v5FTdb3" version="13.6.5">
    <diagram id="9JA9_Uzxs-ETfmpxqB9q" name="Context">
        <mxGraphModel dx="1214" dy="580" grid="1" gridSize="10" guides="1" tooltips="1" connect="1" arrows="1" fold="1" page="1" pageScale="1" pageWidth="850" pageHeight="1100" math="0" shadow="0">
            <root>
                <mxCell id="0"/>
                <mxCell id="1" parent="0"/>
                <mxCell id="2" value="&lt;b&gt;&lt;font style=&quot;font-size: 23px&quot;&gt;Perfect Productivity Platform System&lt;/font&gt;&lt;/b&gt;&lt;br&gt;&lt;font style=&quot;font-size: 13px&quot;&gt;[Software System]&lt;/font&gt;&lt;br&gt;&lt;br&gt;Allows users to manage productivity tasks." style="rounded=0;whiteSpace=wrap;html=1;fontSize=18;fillColor=#0050ef;strokeColor=#001DBC;fontColor=#ffffff;" parent="1" vertex="1">
                    <mxGeometry x="295" y="420" width="260" height="170" as="geometry"/>
                </mxCell>
                <mxCell id="3" value="" style="endArrow=none;html=1;fontSize=18;dashed=1;endFill=0;exitX=0.5;exitY=1;exitDx=0;exitDy=0;strokeColor=#F0F0F0;" parent="1" source="11" target="4" edge="1">
                    <mxGeometry width="50" height="50" relative="1" as="geometry">
                        <mxPoint x="425.5" y="329.5" as="sourcePoint"/>
                        <mxPoint x="420" y="490" as="targetPoint"/>
                    </mxGeometry>
                </mxCell>
                <mxCell id="4" value="Create, view, edit, complete and delete tasks using" style="text;html=1;strokeColor=none;fillColor=none;align=center;verticalAlign=middle;whiteSpace=wrap;rounded=0;fontStyle=1;fontColor=#F0F0F0;" parent="1" vertex="1">
                    <mxGeometry x="330" y="350" width="190" height="40" as="geometry"/>
                </mxCell>
                <mxCell id="5" value="" style="endArrow=classic;html=1;fontSize=18;dashed=1;endFill=1;exitX=0.5;exitY=1;exitDx=0;exitDy=0;entryX=0.5;entryY=0;entryDx=0;entryDy=0;strokeColor=#F0F0F0;" parent="1" source="4" target="2" edge="1">
                    <mxGeometry width="50" height="50" relative="1" as="geometry">
                        <mxPoint x="430" y="360" as="sourcePoint"/>
                        <mxPoint x="430" y="400" as="targetPoint"/>
                    </mxGeometry>
                </mxCell>
                <mxCell id="8" value="" style="ellipse;whiteSpace=wrap;html=1;strokeColor=#001DBC;fontColor=#ffffff;fillColor=#002B80;" parent="1" vertex="1">
                    <mxGeometry x="385" y="100" width="80" height="80" as="geometry"/>
                </mxCell>
                <mxCell id="11" value="&lt;font style=&quot;font-size: 23px&quot;&gt;Task Master&lt;/font&gt;&lt;br&gt;&lt;font style=&quot;font-size: 13px&quot;&gt;[Person]&lt;/font&gt;&lt;br&gt;&lt;br&gt;&lt;font style=&quot;font-size: 18px&quot;&gt;A user of the PPP System, wanting to be more productive&lt;/font&gt;" style="rounded=1;whiteSpace=wrap;html=1;strokeColor=#001DBC;fontColor=#ffffff;fillColor=#002B80;" parent="1" vertex="1">
                    <mxGeometry x="320" y="180" width="210" height="140" as="geometry"/>
                </mxCell>
            </root>
        </mxGraphModel>
    </diagram>
</mxfile>